<svg width="105" height="28" viewBox="0 0 105 28" fill="none" xmlns="http://www.w3.org/2000/svg">
<g clip-path="url(#clip0_8_17)">
<path d="M31.9361 0H29.8462V27.8057H31.9361V0Z" fill="black"/>
<path d="M17.9433 13.3115H7.77148V15.2225H17.9433V13.3115Z" fill="black"/>
<path d="M0 0V27.8057H2.08988V1.91093H23.6744V0H0Z" fill="black"/>
<path d="M94.5669 0.113281H77.9785V27.919H80.0684V17.5546H80.0847V15.6437H80.0684V2.02421H94.42C99.4651 2.02421 102.91 4.32381 102.91 8.72867V8.80964C102.91 12.9392 99.3834 15.6437 94.1751 15.6437H87.6115V17.5546H94.0608C99.9059 17.5546 105 14.5425 105 8.69628V8.61531C104.967 3.23879 100.722 0.113281 94.5669 0.113281Z" fill="black"/>
<path d="M65.8476 15.6437L56.1329 0H54.1247L36.8179 28H38.9731L55.088 2.26721L63.4965 15.6437H65.8476Z" fill="black"/>
<path d="M69.048 20.7773H66.7295L71.2521 28H73.5379L69.048 20.7773Z" fill="black"/>
</g>
<defs>
<clipPath id="clip0_8_17">
<rect width="105" height="28" fill="white"/>
</clipPath>
</defs>
</svg>
