<svg width="510" height="47" viewBox="0 0 510 47" fill="none" xmlns="http://www.w3.org/2000/svg">
<path d="M19.328 46.976C13.1413 46.976 8.36267 45.5253 4.992 42.624C1.664 39.68 0.0213366 35.2853 0.064003 29.44H10.496C10.4533 31.872 11.1787 33.728 12.672 35.008C14.1653 36.288 16.256 36.928 18.944 36.928C21.1627 36.928 22.912 36.5653 24.192 35.84C25.472 35.1146 26.112 34.0053 26.112 32.512C26.112 31.2746 25.4507 30.3786 24.128 29.824C22.848 29.2693 21.568 28.8853 20.288 28.672C19.008 28.416 18.2187 28.2666 17.92 28.224C14.6347 27.584 11.7973 26.816 9.408 25.92C7.01867 24.9813 5.01334 23.5733 3.392 21.696C1.77067 19.8186 0.960003 17.344 0.960003 14.272C0.960003 11.2 1.77067 8.59731 3.392 6.46397C5.01334 4.28797 7.168 2.66664 9.856 1.59997C12.5867 0.533306 15.552 -2.67029e-05 18.752 -2.67029e-05C22.6347 -2.67029e-05 25.984 0.725306 28.8 2.17597C31.6587 3.62664 33.8987 5.82397 35.52 8.76797C36.3307 10.176 36.8213 11.5413 36.992 12.864C37.1627 14.144 37.248 15.4026 37.248 16.64H26.816C26.816 14.336 26.1973 12.6506 24.96 11.584C23.7227 10.4746 21.8027 9.91997 19.2 9.91997C17.1093 9.91997 15.488 10.2826 14.336 11.008C13.184 11.7333 12.608 12.7146 12.608 13.952C12.608 15.3173 13.376 16.32 14.912 16.96C16.448 17.6 18.3893 18.176 20.736 18.688C24.576 19.456 27.5627 20.2026 29.696 20.928C31.872 21.6106 33.7493 22.848 35.328 24.64C36.9067 26.432 37.696 28.9493 37.696 32.192C37.696 35.264 36.8427 37.9093 35.136 40.128C33.4293 42.3466 31.168 44.0533 28.352 45.248C25.5787 46.4 22.5707 46.976 19.328 46.976ZM52.111 1.27997V31.424L82.319 1.27997H85.647L67.023 19.84L85.583 45.824H82.767L65.359 21.504L52.111 34.752V45.824H49.743V1.27997H52.111ZM128.222 1.27997V3.64797H114.91V43.456H128.222V45.824H99.358V43.456H112.606V3.64797H99.358V1.27997H128.222ZM147.373 45.824V1.27997H149.741V43.456H180.781V45.824H147.373ZM194.748 45.824V1.27997H197.116V43.456H228.156V45.824H194.748ZM285.274 1.21597H287.834L303.386 28.736L318.874 1.21597H321.242V45.76H285.274V1.21597ZM287.642 43.456H318.874V6.01597L304.474 31.36H302.234L287.642 5.63197V43.456ZM349.417 1.27997H351.913L370.217 45.824H367.657L361.641 31.104H339.689L333.609 45.824H331.113L349.417 1.27997ZM340.649 28.8H360.681L350.633 4.35197L340.649 28.8ZM415.992 1.27997V3.64797H399.16V45.824H396.856V3.64797H380.024V1.27997H415.992ZM430.087 28.8C430.087 31.616 430.791 34.2186 432.199 36.608C433.65 38.9973 435.57 40.896 437.959 42.304C440.391 43.712 443.015 44.416 445.831 44.416C448.732 44.416 451.356 43.84 453.703 42.688C456.05 41.536 457.884 39.936 459.207 37.888C460.572 35.84 461.276 33.536 461.319 30.976H463.623C463.623 33.92 462.834 36.608 461.255 39.04C459.719 41.4293 457.586 43.328 454.855 44.736C452.167 46.1013 449.159 46.784 445.831 46.784C442.588 46.784 439.58 45.9733 436.807 44.352C434.034 42.7306 431.836 40.5546 430.215 37.824C428.594 35.0506 427.783 32.0426 427.783 28.8V18.304C427.783 15.0613 428.572 12.0746 430.151 9.34397C431.772 6.57064 433.948 4.37331 436.679 2.75197C439.452 1.13064 442.46 0.319973 445.703 0.319973C448.988 0.319973 451.975 1.02397 454.663 2.43197C457.394 3.79731 459.548 5.69597 461.127 8.12797C462.706 10.5173 463.495 13.184 463.495 16.128H461.191C461.148 13.568 460.444 11.264 459.079 9.21597C457.714 7.16797 455.858 5.56797 453.511 4.41597C451.207 3.26397 448.604 2.68797 445.703 2.68797C442.887 2.68797 440.284 3.39197 437.895 4.79997C435.506 6.20797 433.607 8.10664 432.199 10.496C430.791 12.8853 430.087 15.488 430.087 18.304V28.8ZM475.606 45.824V1.27997H477.974V22.336H507.542V1.27997H509.91V45.824H507.542V24.704H477.974V45.824H475.606Z" fill="#9CDFB7"/>
</svg>
