<svg width="190" height="128" viewBox="0 0 190 128" fill="none" xmlns="http://www.w3.org/2000/svg">
<path d="M48.25 117.304C35.8767 117.304 26.3193 114.403 19.578 108.6C12.922 102.712 9.63667 93.9227 9.722 82.232H30.586C30.5007 87.096 31.9513 90.808 34.938 93.368C37.9247 95.928 42.106 97.208 47.482 97.208C51.9193 97.208 55.418 96.4827 57.978 95.032C60.538 93.5813 61.818 91.3627 61.818 88.376C61.818 85.9013 60.4953 84.1093 57.85 83C55.29 81.8907 52.73 81.1227 50.17 80.696C47.61 80.184 46.0313 79.8853 45.434 79.8C38.8633 78.52 33.1887 76.984 28.41 75.192C23.6313 73.3147 19.6207 70.4987 16.378 66.744C13.1353 62.9893 11.514 58.04 11.514 51.896C11.514 45.752 13.1353 40.5467 16.378 36.28C19.6207 31.928 23.93 28.6853 29.306 26.552C34.7673 24.4187 40.698 23.352 47.098 23.352C54.8633 23.352 61.562 24.8027 67.194 27.704C72.9113 30.6053 77.3913 35 80.634 40.888C82.2553 43.704 83.2367 46.4347 83.578 49.08C83.9193 51.64 84.09 54.1573 84.09 56.632H63.226C63.226 52.024 61.9887 48.6533 59.514 46.52C57.0393 44.3013 53.1993 43.192 47.994 43.192C43.8127 43.192 40.57 43.9173 38.266 45.368C35.962 46.8187 34.81 48.7813 34.81 51.256C34.81 53.9867 36.346 55.992 39.418 57.272C42.49 58.552 46.3727 59.704 51.066 60.728C58.746 62.264 64.7193 63.7573 68.986 65.208C73.338 66.5733 77.0927 69.048 80.25 72.632C83.4073 76.216 84.986 81.2507 84.986 87.736C84.986 93.88 83.2793 99.1707 79.866 103.608C76.4527 108.045 71.93 111.459 66.298 113.848C60.7513 116.152 54.7353 117.304 48.25 117.304ZM106.392 25.784H111.512L142.616 80.824L173.592 25.784H178.328V114.872H106.392V25.784ZM111.128 110.264H173.592V35.384L144.792 86.072H140.312L111.128 34.616V110.264Z" fill="#9CDFB7"/>
</svg>
