<svg width="474" height="248" viewBox="0 0 474 248" fill="none" xmlns="http://www.w3.org/2000/svg">
<path d="M48.125 117.304C35.7517 117.304 26.1943 114.403 19.453 108.6C12.797 102.712 9.51167 93.9227 9.597 82.232H30.461C30.3757 87.096 31.8263 90.808 34.813 93.368C37.7997 95.928 41.981 97.208 47.357 97.208C51.7943 97.208 55.293 96.4827 57.853 95.032C60.413 93.5813 61.693 91.3627 61.693 88.376C61.693 85.9013 60.3703 84.1093 57.725 83C55.165 81.8907 52.605 81.1227 50.045 80.696C47.485 80.184 45.9063 79.8853 45.309 79.8C38.7383 78.52 33.0637 76.984 28.285 75.192C23.5063 73.3147 19.4957 70.4987 16.253 66.744C13.0103 62.9893 11.389 58.04 11.389 51.896C11.389 45.752 13.0103 40.5467 16.253 36.28C19.4957 31.928 23.805 28.6853 29.181 26.552C34.6423 24.4187 40.573 23.352 46.973 23.352C54.7383 23.352 61.437 24.8027 67.069 27.704C72.7863 30.6053 77.2663 35 80.509 40.888C82.1303 43.704 83.1117 46.4347 83.453 49.08C83.7943 51.64 83.965 54.1573 83.965 56.632H63.101C63.101 52.024 61.8637 48.6533 59.389 46.52C56.9143 44.3013 53.0743 43.192 47.869 43.192C43.6877 43.192 40.445 43.9173 38.141 45.368C35.837 46.8187 34.685 48.7813 34.685 51.256C34.685 53.9867 36.221 55.992 39.293 57.272C42.365 58.552 46.2477 59.704 50.941 60.728C58.621 62.264 64.5943 63.7573 68.861 65.208C73.213 66.5733 76.9677 69.048 80.125 72.632C83.2823 76.216 84.861 81.2507 84.861 87.736C84.861 93.88 83.1543 99.1707 79.741 103.608C76.3277 108.045 71.805 111.459 66.173 113.848C60.6263 116.152 54.6103 117.304 48.125 117.304ZM113.691 25.912V86.2L174.107 25.912H180.763L143.515 63.032L180.635 115H175.003L140.187 66.36L113.691 92.856V115H108.955V25.912H113.691ZM265.913 25.912V30.648H239.289V110.264H265.913V115H208.185V110.264H234.681V30.648H208.185V25.912H265.913ZM304.215 115V25.912H308.951V110.264H371.031V115H304.215ZM398.965 115V25.912H403.701V110.264H465.781V115H398.965Z" fill="#0A0A0A"/>
<path d="M11.517 145.784H16.637L47.741 200.824L78.717 145.784H83.453V234.872H11.517V145.784ZM16.253 230.264H78.717V155.384L49.917 206.072H45.437L16.253 154.616V230.264ZM139.803 145.912H144.795L181.403 235H176.283L164.251 205.56H120.347L108.187 235H103.195L139.803 145.912ZM122.267 200.952H162.331L142.235 152.056L122.267 200.952ZM272.953 145.912V150.648H239.289V235H234.681V150.648H201.017V145.912H272.953ZM301.143 200.952C301.143 206.584 302.551 211.789 305.367 216.568C308.268 221.347 312.108 225.144 316.887 227.96C321.751 230.776 326.999 232.184 332.631 232.184C338.434 232.184 343.682 231.032 348.375 228.728C353.068 226.424 356.738 223.224 359.383 219.128C362.114 215.032 363.522 210.424 363.607 205.304H368.215C368.215 211.192 366.636 216.568 363.479 221.432C360.407 226.211 356.14 230.008 350.679 232.824C345.303 235.555 339.287 236.92 332.631 236.92C326.146 236.92 320.13 235.299 314.583 232.056C309.036 228.813 304.642 224.461 301.399 219C298.156 213.453 296.535 207.437 296.535 200.952V179.96C296.535 173.475 298.114 167.501 301.271 162.04C304.514 156.493 308.866 152.099 314.327 148.856C319.874 145.613 325.89 143.992 332.375 143.992C338.946 143.992 344.919 145.4 350.295 148.216C355.756 150.947 360.066 154.744 363.223 159.608C366.38 164.387 367.959 169.72 367.959 175.608H363.351C363.266 170.488 361.858 165.88 359.127 161.784C356.396 157.688 352.684 154.488 347.991 152.184C343.383 149.88 338.178 148.728 332.375 148.728C326.743 148.728 321.538 150.136 316.759 152.952C311.98 155.768 308.183 159.565 305.367 164.344C302.551 169.123 301.143 174.328 301.143 179.96V200.952ZM392.181 235V145.912H396.917V188.024H456.053V145.912H460.789V235H456.053V192.76H396.917V235H392.181Z" fill="#0A0A0A"/>
</svg>
